<?xml version="1.0" encoding="UTF-8"?><svg id="Layer_6" xmlns="http://www.w3.org/2000/svg" viewBox="0 0 800 800"><defs><style>.cls-1{fill:none;stroke:#2f8bea;stroke-linecap:round;stroke-miterlimit:10;stroke-width:30px;}.cls-2{fill:#1a1a1a;}.cls-3{fill:#2f8bea;}</style></defs><rect class="cls-2" x="150" y="16" width="500" height="104" rx="12" ry="12" transform="translate(800 136) rotate(180)"/><rect class="cls-3" x="173" y="41" width="454" height="56" rx="12" ry="12" transform="translate(800 138) rotate(180)"/><rect class="cls-2" x="360" y="120" width="80" height="80"/><rect class="cls-3" x="347" y="117" width="106" height="30" rx="12" ry="12" transform="translate(532 -268) rotate(90)"/><rect class="cls-2" x="150" y="680" width="500" height="104" rx="12" ry="12" transform="translate(800 1464) rotate(180)"/><rect class="cls-2" x="360" y="600" width="80" height="80" transform="translate(800 1280) rotate(180)"/><rect class="cls-3" x="173" y="705" width="454" height="56" rx="12" ry="12" transform="translate(800 1466) rotate(180)"/><rect class="cls-3" x="347" y="653" width="106" height="30" rx="12" ry="12" transform="translate(-268 1068) rotate(-90)"/><path class="cls-2" d="M400,185c-118.74,0-215,96.26-215,215s96.26,215,215,215,215-96.26,215-215-96.26-215-215-215ZM400,535c-74.56,0-135-60.44-135-135s60.44-135,135-135,135,60.44,135,135-60.44,135-135,135Z"/><rect class="cls-2" x="124" y="344" width="200" height="120" rx="12" ry="12"/><line class="cls-1" x1="161" y1="374" x2="287" y2="434"/><line class="cls-1" x1="287" y1="374" x2="161" y2="434"/><rect class="cls-2" x="457" y="316" width="200" height="176" rx="12" ry="12"/><line class="cls-1" x1="494" y1="344" x2="620" y2="404"/><line class="cls-1" x1="620" y1="344" x2="494" y2="404"/><line class="cls-1" x1="494" y1="404" x2="620" y2="464"/><line class="cls-1" x1="620" y1="404" x2="494" y2="464"/><path class="cls-1" d="M548.67,492.01c-30.96,49.82-86.19,82.99-149.17,82.99-76.04,0-140.78-48.36-165.16-116"/><path class="cls-1" d="M231.89,348.31c22.22-71.44,88.86-123.31,167.61-123.31,66.29,0,124,36.76,153.85,91"/></svg>